<svg id="visual" viewBox="0 0 900 600" width="900" height="600" xmlns="http://www.w3.org/2000/svg" xmlns:xlink="http://www.w3.org/1999/xlink" version="1.1"><rect x="0" y="0" width="900" height="600" fill="#001220"></rect><path d="M0 444L21.5 434.3C43 424.7 86 405.3 128.8 402.3C171.7 399.3 214.3 412.7 257.2 423C300 433.3 343 440.7 385.8 440.5C428.7 440.3 471.3 432.7 514.2 430C557 427.3 600 429.7 642.8 429.5C685.7 429.3 728.3 426.7 771.2 413C814 399.3 857 374.7 878.5 362.3L900 350L900 601L878.5 601C857 601 814 601 771.2 601C728.3 601 685.7 601 642.8 601C600 601 557 601 514.2 601C471.3 601 428.7 601 385.8 601C343 601 300 601 257.2 601C214.3 601 171.7 601 128.8 601C86 601 43 601 21.5 601L0 601Z" fill="#4facf7"></path><path d="M0 444L21.5 435.7C43 427.3 86 410.7 128.8 410.8C171.7 411 214.3 428 257.2 429.5C300 431 343 417 385.8 422.3C428.7 427.7 471.3 452.3 514.2 461.2C557 470 600 463 642.8 449.7C685.7 436.3 728.3 416.7 771.2 414C814 411.3 857 425.7 878.5 432.8L900 440L900 601L878.5 601C857 601 814 601 771.2 601C728.3 601 685.7 601 642.8 601C600 601 557 601 514.2 601C471.3 601 428.7 601 385.8 601C343 601 300 601 257.2 601C214.3 601 171.7 601 128.8 601C86 601 43 601 21.5 601L0 601Z" fill="#2b9dfc"></path><path d="M0 497L21.5 495.7C43 494.3 86 491.7 128.8 490C171.7 488.3 214.3 487.7 257.2 480C300 472.3 343 457.7 385.8 459.8C428.7 462 471.3 481 514.2 482.2C557 483.3 600 466.7 642.8 463.3C685.7 460 728.3 470 771.2 477.7C814 485.3 857 490.7 878.5 493.3L900 496L900 601L878.5 601C857 601 814 601 771.2 601C728.3 601 685.7 601 642.8 601C600 601 557 601 514.2 601C471.3 601 428.7 601 385.8 601C343 601 300 601 257.2 601C214.3 601 171.7 601 128.8 601C86 601 43 601 21.5 601L0 601Z" fill="#008cff"></path><path d="M0 495L21.5 494.7C43 494.3 86 493.7 128.8 500.5C171.7 507.3 214.3 521.7 257.2 529.7C300 537.7 343 539.3 385.8 531.2C428.7 523 471.3 505 514.2 495.8C557 486.7 600 486.3 642.8 493.2C685.7 500 728.3 514 771.2 516.3C814 518.7 857 509.3 878.5 504.7L900 500L900 601L878.5 601C857 601 814 601 771.2 601C728.3 601 685.7 601 642.8 601C600 601 557 601 514.2 601C471.3 601 428.7 601 385.8 601C343 601 300 601 257.2 601C214.3 601 171.7 601 128.8 601C86 601 43 601 21.5 601L0 601Z" fill="#007aff"></path><path d="M0 532L21.5 537C43 542 86 552 128.8 555.2C171.7 558.3 214.3 554.7 257.2 554.3C300 554 343 557 385.8 556C428.7 555 471.3 550 514.2 546.5C557 543 600 541 642.8 542.5C685.7 544 728.3 549 771.2 553C814 557 857 560 878.5 561.5L900 563L900 601L878.5 601C857 601 814 601 771.2 601C728.3 601 685.7 601 642.8 601C600 601 557 601 514.2 601C471.3 601 428.7 601 385.8 601C343 601 300 601 257.2 601C214.3 601 171.7 601 128.8 601C86 601 43 601 21.5 601L0 601Z" fill="#0066ff"></path></svg>